<svg width="25" height="24" viewBox="0 0 25 24" fill="none" xmlns="http://www.w3.org/2000/svg">
<ellipse cx="12.9626" cy="12" rx="11.9775" ry="12" fill="#D7EAF6"/>
<path d="M20.2731 10.05H19.3748V11.85H20.2731V10.05Z" fill="#19A5F0" stroke="#0077BC" stroke-width="0.5"/>
<path fill-rule="evenodd" clip-rule="evenodd" d="M19.3749 10.05V11.85H18.4766V10.275C18.4766 10.2129 18.5017 10.1567 18.5423 10.1159C18.583 10.0752 18.6391 10.05 18.7011 10.05H19.3749Z" fill="#19A5F0" stroke="#0077BC" stroke-width="0.5"/>
<path d="M21.172 10.05H20.2737V11.85H21.172V10.05Z" fill="#19A5F0" stroke="#0077BC" stroke-width="0.5"/>
<path fill-rule="evenodd" clip-rule="evenodd" d="M21.8456 10.05C21.9076 10.05 21.9638 10.0752 22.0044 10.1159C22.0451 10.1567 22.0702 10.2129 22.0702 10.275V11.85H21.1719V10.05H21.8456Z" fill="#19A5F0" stroke="#0077BC" stroke-width="0.5"/>
<path d="M21.6207 10.05H18.9257C18.6777 10.05 18.4766 10.2515 18.4766 10.5V11.4C18.4766 11.6486 18.6777 11.85 18.9257 11.85H21.6207C21.8687 11.85 22.0698 11.6486 22.0698 11.4V10.5C22.0698 10.2515 21.8687 10.05 21.6207 10.05Z" stroke="#242936" stroke-width="0.5"/>
<path fill-rule="evenodd" clip-rule="evenodd" d="M22.295 11.8499C22.3571 11.8499 22.4132 11.875 22.4538 11.9158C22.4945 11.9565 22.5196 12.0127 22.5196 12.0749V12.5249C22.5196 12.7112 22.4442 12.88 22.3223 13.0022C22.2004 13.1243 22.0319 13.1999 21.8459 13.1999H13.0873C12.9013 13.1999 12.7328 13.1243 12.6109 13.0022C12.489 12.88 12.4136 12.7112 12.4136 12.5249C12.4136 12.3385 12.489 12.1697 12.6109 12.0476C12.7328 11.9254 12.9013 11.8499 13.0873 11.8499H22.295Z" fill="white" stroke="#242936" stroke-width="0.5"/>
<path d="M11.9636 11.175H4.32794C3.58375 11.175 2.98047 11.7795 2.98047 12.525C2.98047 13.2706 3.58375 13.875 4.32794 13.875H11.9636C12.7078 13.875 13.3111 13.2706 13.3111 12.525C13.3111 11.7795 12.7078 11.175 11.9636 11.175Z" fill="white" stroke="#242936" stroke-width="0.5"/>
<path fill-rule="evenodd" clip-rule="evenodd" d="M5.90015 11.4001C6.04987 12.1501 6.76103 12.5251 8.03364 12.5251C9.30626 12.5251 9.94256 12.1501 9.94256 11.4001H5.90015Z" fill="#0077BC"/>
<path fill-rule="evenodd" clip-rule="evenodd" d="M14.0124 6C15.8782 6 17.5784 7.42862 17.5784 9.19091C17.5784 9.90759 17.2972 10.5691 16.8381 11.1017C16.3542 11.7855 15.6974 12.6479 15.4908 15.0168C15.097 19.5325 13.2154 17.5171 13.1282 15.0168C13.0753 13.5023 12.7996 12.668 12.3009 12.5139C11.8021 12.6678 11.5262 13.5021 11.4734 15.0168C11.3862 17.5171 9.50454 19.5325 9.11077 15.0168C8.9042 12.6479 8.2474 11.7855 7.76353 11.1017C7.30438 10.5691 7.02319 9.90759 7.02319 9.19091C7.02319 7.42862 8.72338 6 10.5891 6C11.2138 6 11.7989 6.16016 12.3009 6.43938C12.8028 6.16011 13.3878 6 14.0124 6Z" fill="white" stroke="#242936" stroke-width="0.5"/>
<path d="M8.37131 9.3751C8.37131 8.4804 9.02633 7.6201 9.94336 7.3501" stroke="#DDE1E6" stroke-width="0.5" stroke-linecap="round"/>
<path d="M10.8416 5.9999C11.7512 5.9999 13.312 6.6749 13.312 8.0249" stroke="#373737" stroke-width="0.5" stroke-linecap="round"/>
<path d="M10.5043 11.7376C11.4138 11.7376 13.0869 11.6496 13.0869 14.6626" stroke="#373737" stroke-width="0.5" stroke-linecap="round"/>
<path fill-rule="evenodd" clip-rule="evenodd" d="M14.0975 6.2251C13.5299 6.45776 14.9958 9.1501 15.3327 9.0376C16.1562 9.0376 16.7925 8.8501 17.2416 8.4751C16.7925 7.0501 15.7444 6.3001 14.0975 6.2251Z" fill="#19A5F0"/>
</svg>
