<svg width="25" height="24" viewBox="0 0 25 24" fill="none" xmlns="http://www.w3.org/2000/svg">
<ellipse cx="12.9626" cy="12" rx="11.9775" ry="12" fill="#D7EAF6"/>
<path fill-rule="evenodd" clip-rule="evenodd" d="M20.1492 16.1158C20.1492 16.1158 19.3482 14.9551 17.9465 16.1158C16.5448 17.2765 16.5559 17.3733 16.5559 17.3733L18.8837 18L20.1492 16.1158Z" fill="#D8D8D8"/>
<path fill-rule="evenodd" clip-rule="evenodd" d="M20.0954 16.1065C20.0954 16.1066 20.0955 16.1067 20.0081 16.1823L20.0954 16.1065L20.1492 16.1813L18.876 18L16.5669 17.4035L16.5569 17.3199L16.6673 17.304C16.5569 17.3199 16.5567 17.3188 16.5566 17.3178L16.5564 17.3157L16.5561 17.3117C16.556 17.309 16.5559 17.3064 16.5559 17.3039C16.5559 17.2989 16.5562 17.2942 16.5566 17.2899C16.5575 17.2813 16.5591 17.2738 16.5608 17.2676C16.5641 17.2555 16.5686 17.2455 16.5725 17.238C16.58 17.2234 16.5902 17.2089 16.6023 17.1938C16.6268 17.1631 16.6709 17.1155 16.7525 17.0387C16.9163 16.8844 17.2425 16.6016 17.8948 16.0834C18.5725 15.545 19.1217 15.5349 19.5085 15.6783C19.6985 15.7488 19.8439 15.8543 19.9418 15.9422C19.9909 15.9862 20.0284 16.026 20.054 16.0555C20.0668 16.0702 20.0767 16.0823 20.0837 16.0911C20.0871 16.0955 20.0898 16.099 20.0918 16.1017L20.0942 16.1049L20.095 16.106L20.0954 16.1065ZM16.886 17.235L18.787 17.726L19.862 16.1904C19.8451 16.1727 19.8247 16.1527 19.8008 16.1312C19.7184 16.0573 19.5961 15.9687 19.4371 15.9097C19.1257 15.7943 18.651 15.7842 18.0255 16.2812C17.3746 16.7983 17.0543 17.0764 16.8976 17.2241C16.8936 17.2278 16.8897 17.2314 16.886 17.235Z" fill="#373737"/>
<path d="M20.0954 16.1065C20.0954 16.1066 20.0955 16.1067 20.0081 16.1823L20.0954 16.1065ZM20.0954 16.1065L20.1492 16.1813L18.876 18L16.5669 17.4035L16.5569 17.3199L16.6673 17.304C16.5569 17.3199 16.5567 17.3188 16.5566 17.3178L16.5564 17.3157L16.5561 17.3117C16.556 17.309 16.5559 17.3064 16.5559 17.3039C16.5559 17.2989 16.5562 17.2942 16.5566 17.2899C16.5575 17.2813 16.5591 17.2738 16.5608 17.2676C16.5641 17.2555 16.5686 17.2455 16.5725 17.238C16.58 17.2234 16.5902 17.2089 16.6023 17.1938C16.6268 17.1631 16.6709 17.1155 16.7525 17.0387C16.9163 16.8844 17.2425 16.6016 17.8948 16.0834C18.5725 15.545 19.1217 15.5349 19.5085 15.6783C19.6985 15.7488 19.8439 15.8543 19.9418 15.9422C19.9909 15.9862 20.0284 16.026 20.054 16.0555C20.0668 16.0702 20.0767 16.0823 20.0837 16.0911C20.0871 16.0955 20.0898 16.099 20.0918 16.1017L20.0942 16.1049L20.095 16.106L20.0954 16.1065ZM18.787 17.726L16.886 17.235C16.8897 17.2314 16.8936 17.2278 16.8976 17.2241C17.0543 17.0764 17.3746 16.7983 18.0255 16.2812C18.651 15.7842 19.1257 15.7943 19.4371 15.9097C19.5961 15.9687 19.7184 16.0573 19.8008 16.1312C19.8247 16.1527 19.8451 16.1727 19.862 16.1904L18.787 17.726Z" stroke="#242936" stroke-width="0.2"/>
<path fill-rule="evenodd" clip-rule="evenodd" d="M7.4729 17.7214L11.1582 20.3584C11.3149 20.4704 11.5095 20.5191 11.704 20.493C12.9144 20.3305 17.3868 19.7348 17.9066 19.7348C18.5086 19.7348 21.1658 18.1993 21.9196 17.7214C22.6734 17.2435 22.4306 16.7263 22.3081 16.5627C22.1202 16.3121 21.9196 15.708 20.9163 16.1107C20.8834 16.1239 18.9099 17.3188 18.7092 17.3188C17.7823 17.3188 16.5277 17.3188 15.6995 17.3188C14.6301 17.9228 14.2949 17.5201 14.0943 17.3188C13.8936 17.1174 12.6675 16.1107 12.6898 16.1107C13.2917 16.7147 13.8489 17.2314 14.2949 17.5201C14.8659 17.8896 15.0975 17.7214 15.6995 17.3188C16.1008 16.9161 15.6995 16.5134 15.2982 16.1107C15.282 16.0945 14.5115 15.3213 14.4956 15.3053C13.6654 14.4723 13.4923 14.5 12.6898 14.5C11.8872 14.5 7.4729 14.5 7.4729 14.5L7.4729 17.7214Z" fill="white"/>
<path fill-rule="evenodd" clip-rule="evenodd" d="M13.399 14.4959C13.6796 14.5997 13.9525 14.8105 14.3766 15.2109L15.2073 15.9952C15.4055 16.1823 15.6221 16.3868 15.7333 16.5968C15.7914 16.7063 15.825 16.8246 15.8086 16.9482C15.8011 17.0049 15.7834 17.0603 15.7553 17.1142H18.5909C18.5931 17.1137 18.5999 17.1121 18.6127 17.108C18.6336 17.1012 18.6619 17.0905 18.6977 17.0755C18.769 17.0455 18.862 17.0019 18.9705 16.9483C19.187 16.8414 19.4581 16.6981 19.7251 16.5537C19.9918 16.4095 20.2533 16.2648 20.4504 16.1552C20.5001 16.1276 20.5459 16.1021 20.5867 16.0794C20.6264 16.0573 20.6613 16.0378 20.6903 16.0217C20.7198 16.0054 20.7436 15.9922 20.7607 15.9829C20.7692 15.9782 20.7764 15.9743 20.782 15.9713C20.782 15.9713 20.7951 15.9642 20.806 15.9601C21.3442 15.7568 21.7014 15.7967 21.9521 15.9531C22.0719 16.0279 22.1578 16.1237 22.2241 16.2114C22.2561 16.2537 22.2846 16.2956 22.3097 16.3325L22.3123 16.3363C22.3389 16.3754 22.3607 16.4072 22.3816 16.4335C22.4549 16.5255 22.5637 16.7151 22.5418 16.9515C22.5194 17.1943 22.3616 17.4618 21.9516 17.7064C21.563 17.9382 20.6876 18.4243 19.8319 18.8527C19.4041 19.0669 18.9791 19.2676 18.6213 19.4152C18.4424 19.4889 18.2784 19.5502 18.138 19.5932C18.001 19.6352 17.8746 19.6637 17.7755 19.6637C17.652 19.6637 17.2758 19.6983 16.7486 19.755C16.2263 19.8111 15.5663 19.8876 14.8838 19.969C13.5189 20.1319 12.0656 20.3143 11.4465 20.3925C11.2138 20.4219 10.9812 20.367 10.7946 20.2414L7.02367 17.7027C6.99231 17.6816 6.97388 17.6486 6.97388 17.6136V14.5122C6.97388 14.4825 6.98711 14.4541 7.01066 14.4332C7.0342 14.4122 7.06614 14.4004 7.09945 14.4004V14.5122C7.09945 14.4004 7.09945 14.4004 7.09945 14.4004H12.4375C12.4665 14.4004 12.495 14.4004 12.5228 14.4004C12.8787 14.3998 13.1378 14.3994 13.399 14.4959ZM7.22502 14.6239V17.5581L10.9462 20.0632C11.0802 20.1534 11.2457 20.1922 11.4112 20.1713C12.0305 20.0931 13.4846 19.9106 14.8504 19.7476C15.5333 19.6661 16.1945 19.5895 16.7185 19.5332C17.2377 19.4774 17.633 19.4403 17.7755 19.4403C17.8304 19.4403 17.9236 19.4226 18.0562 19.382C18.1854 19.3424 18.3409 19.2845 18.5157 19.2125C18.8649 19.0685 19.2834 18.8709 19.7087 18.658C20.5593 18.2322 21.4291 17.7491 21.8117 17.5208C22.173 17.3053 22.2767 17.0939 22.2915 16.9332C22.307 16.7662 22.2289 16.6282 22.1767 16.5627C22.1496 16.5286 22.123 16.4895 22.0975 16.452L22.0958 16.4496C22.0701 16.4117 22.0443 16.3739 22.0157 16.3361C21.9574 16.259 21.8918 16.1884 21.8079 16.136C21.652 16.0387 21.3948 15.9817 20.9104 16.1634L20.8922 16.1732C20.8759 16.1821 20.8527 16.1949 20.8233 16.2113C20.7942 16.2274 20.7595 16.2467 20.72 16.2688C20.6793 16.2914 20.6336 16.3168 20.5834 16.3447C20.386 16.4544 20.1235 16.5997 19.8555 16.7446C19.5878 16.8894 19.3133 17.0345 19.0924 17.1437C18.9822 17.1981 18.8835 17.2445 18.8049 17.2775C18.7658 17.2939 18.7296 17.3079 18.6984 17.318C18.6719 17.3266 18.6336 17.3376 18.5967 17.3376H15.5571C15.4181 17.4252 15.294 17.5033 15.1803 17.5651C15.0575 17.6319 14.9389 17.6841 14.8158 17.7103C14.5571 17.7653 14.3147 17.6981 14.009 17.512C13.5476 17.231 12.9801 16.7368 12.3759 16.1676C12.3693 16.162 12.3634 16.1569 12.3586 16.1526C12.3542 16.1487 12.3479 16.1429 12.3423 16.1369C12.3406 16.1351 12.3318 16.1257 12.3247 16.113C12.3225 16.109 12.3188 16.1018 12.316 16.0925C12.3135 16.0842 12.3091 16.0663 12.3135 16.0438C12.3187 16.0175 12.3356 15.9888 12.368 15.9697C12.3962 15.9532 12.4238 15.9512 12.4375 15.9512C12.4721 15.9512 12.5051 15.9639 12.5289 15.9863C12.5372 15.9941 12.5455 16.002 12.5538 16.0098C12.5584 16.0137 12.5637 16.0181 12.5697 16.0231C12.6014 16.0492 12.6486 16.0873 12.7074 16.1342C12.7925 16.2021 12.9003 16.2874 13.0174 16.3801C13.0618 16.4153 13.1076 16.4515 13.154 16.4883C13.4874 16.7523 13.8585 17.0478 13.966 17.1493C13.9729 17.1559 13.9799 17.1625 13.9869 17.1691C14.0884 17.2656 14.1984 17.3703 14.3895 17.4076C14.591 17.4469 14.9121 17.4146 15.4372 17.1382C15.5166 17.0598 15.5505 16.988 15.5592 16.9221C15.5685 16.8519 15.5508 16.7763 15.5061 16.692C15.4138 16.5177 15.225 16.3377 15.0151 16.1395L14.1938 15.3641C13.7685 14.9625 13.5281 14.7856 13.3026 14.7022C13.0896 14.6235 12.8809 14.6236 12.5016 14.6238C12.4808 14.6238 12.4594 14.6239 12.4375 14.6239H7.22502Z" fill="#373737"/>
<path d="M7.09945 14.4004C7.06614 14.4004 7.0342 14.4122 7.01066 14.4332C6.98711 14.4541 6.97388 14.4825 6.97388 14.5122V17.6136C6.97388 17.6486 6.99231 17.6816 7.02367 17.7027L10.7946 20.2414C10.9812 20.367 11.2138 20.4219 11.4465 20.3925C12.0656 20.3143 13.5189 20.1319 14.8838 19.969C15.5663 19.8876 16.2263 19.8111 16.7486 19.755C17.2758 19.6983 17.652 19.6637 17.7755 19.6637C17.8746 19.6637 18.001 19.6352 18.138 19.5932C18.2784 19.5502 18.4424 19.4889 18.6213 19.4152C18.9791 19.2676 19.4041 19.0669 19.8319 18.8527C20.6876 18.4243 21.563 17.9382 21.9516 17.7064C22.3616 17.4618 22.5194 17.1943 22.5418 16.9515C22.5637 16.7151 22.4549 16.5255 22.3816 16.4335C22.3607 16.4072 22.3389 16.3754 22.3123 16.3363L22.3097 16.3325C22.2846 16.2956 22.2561 16.2537 22.2241 16.2114C22.1578 16.1237 22.0719 16.0279 21.9521 15.9531C21.7014 15.7967 21.3442 15.7568 20.806 15.9601C20.7951 15.9642 20.782 15.9713 20.782 15.9713C20.7764 15.9743 20.7692 15.9782 20.7607 15.9829C20.7436 15.9922 20.7198 16.0054 20.6903 16.0217C20.6613 16.0378 20.6264 16.0573 20.5867 16.0794C20.5459 16.1021 20.5001 16.1276 20.4504 16.1552C20.2533 16.2648 19.9918 16.4095 19.7251 16.5537C19.4581 16.6981 19.187 16.8414 18.9705 16.9483C18.862 17.0019 18.769 17.0455 18.6977 17.0755C18.6619 17.0905 18.6336 17.1012 18.6127 17.108C18.5999 17.1121 18.5931 17.1137 18.5909 17.1142H15.7553C15.7834 17.0603 15.8011 17.0049 15.8086 16.9482C15.825 16.8246 15.7914 16.7063 15.7333 16.5968C15.6221 16.3868 15.4055 16.1823 15.2073 15.9952L14.3766 15.2109C13.9525 14.8105 13.6796 14.5997 13.399 14.4959C13.1378 14.3994 12.8787 14.3998 12.5228 14.4004C12.495 14.4004 12.4665 14.4004 12.4375 14.4004H7.09945ZM7.09945 14.4004V14.5122C7.09945 14.4004 7.09945 14.4004 7.09945 14.4004ZM15.5571 17.3376V17.3376ZM15.5571 17.3376C15.4181 17.4252 15.294 17.5033 15.1803 17.5651C15.0575 17.6319 14.9389 17.6841 14.8158 17.7103C14.5571 17.7653 14.3147 17.6981 14.009 17.512C13.5476 17.231 12.9801 16.7368 12.3759 16.1676C12.3693 16.162 12.3634 16.1569 12.3586 16.1526C12.3542 16.1487 12.3479 16.1429 12.3423 16.1369C12.3406 16.1351 12.3318 16.1257 12.3247 16.113C12.3225 16.109 12.3188 16.1018 12.316 16.0925C12.3135 16.0842 12.3091 16.0663 12.3135 16.0438C12.3187 16.0175 12.3356 15.9888 12.368 15.9697C12.3962 15.9532 12.4238 15.9512 12.4375 15.9512C12.4721 15.9512 12.5051 15.9639 12.5289 15.9863C12.5372 15.9941 12.5455 16.002 12.5538 16.0098C12.5584 16.0137 12.5637 16.0181 12.5697 16.0231C12.6014 16.0492 12.6486 16.0873 12.7074 16.1342C12.7925 16.2021 12.9003 16.2874 13.0174 16.3801C13.0618 16.4153 13.1076 16.4515 13.154 16.4883C13.4874 16.7523 13.8585 17.0478 13.966 17.1493C13.9729 17.1559 13.9799 17.1625 13.9869 17.1691C14.0884 17.2656 14.1984 17.3703 14.3895 17.4076C14.591 17.4469 14.9121 17.4146 15.4372 17.1382C15.5166 17.0598 15.5505 16.988 15.5592 16.9221C15.5685 16.8519 15.5508 16.7763 15.5061 16.692C15.4138 16.5177 15.225 16.3377 15.0151 16.1395L14.1938 15.3641C13.7685 14.9625 13.5281 14.7856 13.3026 14.7022C13.0896 14.6235 12.8809 14.6236 12.5016 14.6238C12.4808 14.6238 12.4594 14.6239 12.4375 14.6239H7.22502V17.5581L10.9462 20.0632C11.0802 20.1534 11.2457 20.1922 11.4112 20.1713C12.0305 20.0931 13.4846 19.9106 14.8504 19.7476C15.5333 19.6661 16.1945 19.5895 16.7185 19.5332C17.2377 19.4774 17.633 19.4403 17.7755 19.4403C17.8304 19.4403 17.9236 19.4226 18.0562 19.382C18.1854 19.3424 18.3409 19.2845 18.5157 19.2125C18.8649 19.0685 19.2834 18.8709 19.7087 18.658C20.5593 18.2322 21.4291 17.7491 21.8117 17.5208C22.173 17.3053 22.2767 17.0939 22.2915 16.9332C22.307 16.7662 22.2289 16.6282 22.1767 16.5627C22.1496 16.5286 22.123 16.4895 22.0975 16.452L22.0958 16.4496C22.0701 16.4117 22.0443 16.3739 22.0157 16.3361C21.9574 16.259 21.8918 16.1884 21.8079 16.136C21.652 16.0387 21.3948 15.9817 20.9104 16.1634L20.8922 16.1732C20.8759 16.1821 20.8527 16.1949 20.8233 16.2113C20.7942 16.2274 20.7595 16.2467 20.72 16.2688C20.6793 16.2914 20.6336 16.3168 20.5834 16.3447C20.386 16.4544 20.1235 16.5997 19.8555 16.7446C19.5878 16.8894 19.3133 17.0345 19.0924 17.1437C18.9822 17.1981 18.8835 17.2445 18.8049 17.2775C18.7658 17.2939 18.7296 17.3079 18.6984 17.318C18.6719 17.3266 18.6336 17.3376 18.5967 17.3376H15.5571Z" stroke="#242936" stroke-width="0.2" stroke-linejoin="round"/>
<path d="M4.77837 13.6616C4.77837 13.5366 4.89811 13.4001 5.09169 13.4001H7.65831C7.85188 13.4001 7.97163 13.5366 7.97163 13.6616V18.7385C7.97163 18.8635 7.85188 19.0001 7.65831 19.0001H5.09169C4.89811 19.0001 4.77837 18.8635 4.77837 18.7385V13.6616Z" fill="#0077BC" stroke="#242936" stroke-width="0.4"/>
<path fill-rule="evenodd" clip-rule="evenodd" d="M13.5613 13.2001C13.5613 13.2001 9.36914 11.4593 9.36914 8.37947C9.36914 7.17732 9.36914 6.4444 9.36914 5.99756C9.36914 5.66717 9.72238 5.15295 10.0387 5.02158L13.3708 3.63795C13.4923 3.58748 13.6302 3.58748 13.7518 3.63795L17.4648 5.17978C17.64 5.25254 17.7534 5.41805 17.7534 5.60104V8.37947C17.7534 11.7271 13.5613 13.2001 13.5613 13.2001Z" fill="white"/>
<path fill-rule="evenodd" clip-rule="evenodd" d="M13.7002 3.85179C13.6116 3.81486 13.511 3.81486 13.4224 3.85179L10.1829 5.2019C10.059 5.25354 9.91175 5.39044 9.79304 5.56403C9.67431 5.73764 9.60204 5.92175 9.60204 6.05148V8.37569C9.60204 9.82736 10.5872 10.9747 11.5971 11.7678C12.0999 12.1628 12.6034 12.4655 12.9814 12.6695C13.1703 12.7714 13.3275 12.8485 13.4372 12.9C13.4921 12.9258 13.535 12.9451 13.5641 12.9579C13.5643 12.958 13.5645 12.9581 13.5648 12.9582C13.5937 12.9473 13.6363 12.9307 13.6907 12.9084C13.8002 12.8635 13.957 12.7956 14.1456 12.704C14.5229 12.5205 15.0254 12.2425 15.5273 11.8644C16.5332 11.1066 17.5205 9.95956 17.5205 8.37569V5.66456C17.5205 5.53065 17.4378 5.40952 17.3101 5.35628L13.7002 3.85179ZM13.5613 13.0795C13.515 13.1823 13.5149 13.1823 13.5149 13.1823L13.514 13.1819L13.5115 13.1808L13.5022 13.1769C13.4941 13.1734 13.4823 13.1683 13.4669 13.1615C13.4363 13.148 13.3917 13.1279 13.3351 13.1013C13.2219 13.0482 13.0607 12.9691 12.8675 12.8648C12.4813 12.6564 11.9658 12.3467 11.4498 11.9413C10.4218 11.1339 9.36914 9.92926 9.36914 8.37569V6.05148C9.36914 5.85882 9.46858 5.63085 9.59846 5.44094C9.72835 5.251 9.9066 5.07293 10.0903 4.99638L13.3298 3.64627C13.4775 3.58471 13.6451 3.58471 13.7928 3.64626L17.4027 5.15075C17.6156 5.23949 17.7534 5.44137 17.7534 5.66456V8.37569C17.7534 10.0584 16.7029 11.2632 15.6709 12.0407C15.1539 12.4303 14.6375 12.7158 14.2506 12.9039C14.0571 12.998 13.8955 13.0679 13.7821 13.1144C13.7253 13.1377 13.6806 13.1551 13.6498 13.1668C13.6344 13.1726 13.6225 13.177 13.6143 13.18L13.605 13.1834L13.6024 13.1843L13.6017 13.1846C13.6016 13.1846 13.6014 13.1847 13.5613 13.0795ZM13.5613 13.0795L13.6017 13.1846L13.5577 13.2001L13.5149 13.1823L13.5613 13.0795Z" fill="black"/>
<path fill-rule="evenodd" clip-rule="evenodd" d="M13.5613 13.2001C13.5613 13.2001 9.36914 11.4593 9.36914 8.37947C9.36914 7.17732 9.36914 6.4444 9.36914 5.99756C9.36914 5.66717 9.72238 5.15295 10.0387 5.02158L13.3708 3.63795C13.4923 3.58748 13.6302 3.58748 13.7518 3.63795L17.4648 5.17978C17.64 5.25254 17.7534 5.41805 17.7534 5.60104V8.37947C17.7534 11.7271 13.5613 13.2001 13.5613 13.2001Z" fill="#19A5F0"/>
<path fill-rule="evenodd" clip-rule="evenodd" d="M13.7002 3.85179C13.6116 3.81486 13.511 3.81486 13.4224 3.85179L10.1829 5.2019C10.059 5.25354 9.91175 5.39044 9.79304 5.56403C9.67431 5.73764 9.60204 5.92175 9.60204 6.05148V8.37569C9.60204 9.82736 10.5872 10.9747 11.5971 11.7678C12.0999 12.1628 12.6034 12.4655 12.9814 12.6695C13.1703 12.7714 13.3275 12.8485 13.4372 12.9C13.4921 12.9258 13.535 12.9451 13.5641 12.9579C13.5643 12.958 13.5645 12.9581 13.5648 12.9582C13.5937 12.9473 13.6363 12.9307 13.6907 12.9084C13.8002 12.8635 13.957 12.7956 14.1456 12.704C14.5229 12.5205 15.0254 12.2425 15.5273 11.8644C16.5332 11.1066 17.5205 9.95956 17.5205 8.37569V5.66456C17.5205 5.53065 17.4378 5.40952 17.3101 5.35628L13.7002 3.85179ZM13.5613 13.0795C13.515 13.1823 13.5149 13.1823 13.5149 13.1823L13.514 13.1819L13.5115 13.1808L13.5022 13.1769C13.4941 13.1734 13.4823 13.1683 13.4669 13.1615C13.4363 13.148 13.3917 13.1279 13.3351 13.1013C13.2219 13.0482 13.0607 12.9691 12.8675 12.8648C12.4813 12.6564 11.9658 12.3467 11.4498 11.9413C10.4218 11.1339 9.36914 9.92926 9.36914 8.37569V6.05148C9.36914 5.85882 9.46858 5.63085 9.59846 5.44094C9.72835 5.251 9.9066 5.07293 10.0903 4.99638L13.3298 3.64627C13.4775 3.58471 13.6451 3.58471 13.7928 3.64626L17.4027 5.15075C17.6156 5.23949 17.7534 5.44137 17.7534 5.66456V8.37569C17.7534 10.0584 16.7029 11.2632 15.6709 12.0407C15.1539 12.4303 14.6375 12.7158 14.2506 12.9039C14.0571 12.998 13.8955 13.0679 13.7821 13.1144C13.7253 13.1377 13.6806 13.1551 13.6498 13.1668C13.6344 13.1726 13.6225 13.177 13.6143 13.18L13.605 13.1834L13.6024 13.1843L13.6017 13.1846C13.6016 13.1846 13.6014 13.1847 13.5613 13.0795ZM13.5613 13.0795L13.6017 13.1846L13.5577 13.2001L13.5149 13.1823L13.5613 13.0795Z" fill="black"/>
<path d="M13.5149 13.1823C13.5149 13.1823 13.515 13.1823 13.5613 13.0795M13.5149 13.1823L13.514 13.1819L13.5115 13.1808L13.5022 13.1769C13.4941 13.1734 13.4823 13.1683 13.4669 13.1615C13.4363 13.148 13.3917 13.1279 13.3351 13.1013C13.2219 13.0482 13.0607 12.9691 12.8675 12.8648C12.4813 12.6564 11.9658 12.3467 11.4498 11.9413C10.4218 11.1339 9.36914 9.92926 9.36914 8.37569V6.05148C9.36914 5.85882 9.46858 5.63085 9.59846 5.44094C9.72835 5.251 9.9066 5.07293 10.0903 4.99638L13.3298 3.64627C13.4775 3.58471 13.6451 3.58471 13.7928 3.64626L17.4027 5.15075C17.6156 5.23949 17.7534 5.44137 17.7534 5.66456V8.37569C17.7534 10.0584 16.7029 11.2632 15.6709 12.0407C15.1539 12.4303 14.6375 12.7158 14.2506 12.9039C14.0571 12.998 13.8955 13.0679 13.7821 13.1144C13.7253 13.1377 13.6806 13.1551 13.6498 13.1668C13.6344 13.1726 13.6225 13.177 13.6143 13.18L13.605 13.1834L13.6024 13.1843L13.6017 13.1846M13.5149 13.1823L13.5577 13.2001L13.6017 13.1846M13.5149 13.1823L13.5613 13.0795M13.5613 13.0795C13.6014 13.1847 13.6016 13.1846 13.6017 13.1846M13.5613 13.0795L13.6017 13.1846M13.4224 3.85179C13.511 3.81486 13.6116 3.81486 13.7002 3.85179L17.3101 5.35628C17.4378 5.40952 17.5205 5.53065 17.5205 5.66456V8.37569C17.5205 9.95956 16.5332 11.1066 15.5273 11.8644C15.0254 12.2425 14.5229 12.5205 14.1456 12.704C13.957 12.7956 13.8002 12.8635 13.6907 12.9084C13.6363 12.9307 13.5937 12.9473 13.5648 12.9582C13.5645 12.9581 13.5643 12.958 13.5641 12.9579C13.535 12.9451 13.4921 12.9258 13.4372 12.9C13.3275 12.8485 13.1703 12.7714 12.9814 12.6695C12.6034 12.4655 12.0999 12.1628 11.5971 11.7678C10.5872 10.9747 9.60204 9.82736 9.60204 8.37569V6.05148C9.60204 5.92175 9.67431 5.73764 9.79304 5.56403C9.91175 5.39044 10.059 5.25354 10.1829 5.2019L13.4224 3.85179Z" stroke="#242936" stroke-width="0.2"/>
<path fill-rule="evenodd" clip-rule="evenodd" d="M13.5615 12.0003C13.5615 12.0003 10.5671 10.6931 10.5671 8.38044C10.5671 7.23593 10.5671 6.65782 10.5671 6.36581C10.5671 6.18473 10.673 6.02155 10.8362 5.9503L13.387 4.83679C13.4984 4.78813 13.6246 4.78813 13.7361 4.83679L16.2868 5.9503C16.4501 6.02155 16.5559 6.1852 16.5559 6.36629V8.38044C16.5559 10.8942 13.5615 12.0003 13.5615 12.0003Z" fill="white"/>
<path fill-rule="evenodd" clip-rule="evenodd" d="M13.2022 6C13.0699 6 12.9626 6.10745 12.9626 6.24V7.2H12.0044C11.8721 7.2 11.7649 7.30745 11.7649 7.44V8.16C11.7649 8.29255 11.8721 8.4 12.0044 8.4H12.9626V9.36C12.9626 9.49255 13.0699 9.6 13.2022 9.6H13.9208C14.0531 9.6 14.1604 9.49255 14.1604 9.36V8.4H15.1186C15.2509 8.4 15.3582 8.29255 15.3582 8.16V7.44C15.3582 7.30745 15.2509 7.2 15.1186 7.2H14.1604V6.24C14.1604 6.10745 14.0531 6 13.9208 6H13.2022Z" fill="#19A5F0"/>
</svg>
