<svg width="24" height="24" viewBox="0 0 24 24" fill="none" xmlns="http://www.w3.org/2000/svg">
<circle cx="11.998" cy="12" r="12" fill="#D7EAF6"/>
<path fill-rule="evenodd" clip-rule="evenodd" d="M6 9.5L5 7C5 7 6.83333 7.375 7 8.625" fill="#19A5F0"/>
<path d="M6 9.5L5 7C5 7 6.83333 7.375 7 8.625" stroke="#242936" stroke-width="0.5" stroke-linecap="round" stroke-linejoin="round"/>
<mask id="path-4-inside-1_13862_62616" fill="white">
<path fill-rule="evenodd" clip-rule="evenodd" d="M16.298 15.9073C17.5202 14.848 18.2797 13.3655 18.2797 11.7245C18.2797 8.50551 15.3571 5.896 11.752 5.896C10.9595 5.896 10.1999 6.0221 9.4972 6.25305C8.67479 6.07191 7.82767 6.52296 7.51064 7.29379C6.11121 8.3628 5.22424 9.95117 5.22424 11.7245C5.22424 11.8951 5.23244 12.0639 5.24851 12.2307C5.23247 12.3276 5.22412 12.427 5.22412 12.5285C5.22412 12.9219 5.34974 13.286 5.56305 13.5829C5.89877 14.4746 6.46945 15.2699 7.20939 15.9103C7.20855 16.2048 7.20902 16.5015 7.21155 16.7812C7.21721 17.4069 7.52915 18.0398 8.1437 18.1575C8.48905 18.2237 8.81804 18.2068 9.10502 18.1536C9.54948 18.0713 9.85192 17.7487 10.0045 17.3418C10.5607 17.4795 11.1467 17.553 11.752 17.553C12.3448 17.553 12.9191 17.4825 13.4651 17.3503C13.6197 17.7796 13.9414 18.1193 14.4089 18.1754C14.6728 18.207 14.926 18.1998 15.1565 18.1716C15.8875 18.0822 16.298 17.3749 16.298 16.6384V15.9073Z"/>
</mask>
<path fill-rule="evenodd" clip-rule="evenodd" d="M16.298 15.9073C17.5202 14.848 18.2797 13.3655 18.2797 11.7245C18.2797 8.50551 15.3571 5.896 11.752 5.896C10.9595 5.896 10.1999 6.0221 9.4972 6.25305C8.67479 6.07191 7.82767 6.52296 7.51064 7.29379C6.11121 8.3628 5.22424 9.95117 5.22424 11.7245C5.22424 11.8951 5.23244 12.0639 5.24851 12.2307C5.23247 12.3276 5.22412 12.427 5.22412 12.5285C5.22412 12.9219 5.34974 13.286 5.56305 13.5829C5.89877 14.4746 6.46945 15.2699 7.20939 15.9103C7.20855 16.2048 7.20902 16.5015 7.21155 16.7812C7.21721 17.4069 7.52915 18.0398 8.1437 18.1575C8.48905 18.2237 8.81804 18.2068 9.10502 18.1536C9.54948 18.0713 9.85192 17.7487 10.0045 17.3418C10.5607 17.4795 11.1467 17.553 11.752 17.553C12.3448 17.553 12.9191 17.4825 13.4651 17.3503C13.6197 17.7796 13.9414 18.1193 14.4089 18.1754C14.6728 18.207 14.926 18.1998 15.1565 18.1716C15.8875 18.0822 16.298 17.3749 16.298 16.6384V15.9073Z" fill="#19A5F0"/>
<path d="M16.298 15.9073L15.9705 15.5294L15.798 15.6789V15.9073H16.298ZM9.4972 6.25305L9.38964 6.74135L9.52329 6.77078L9.65331 6.72806L9.4972 6.25305ZM7.51064 7.29379L7.81416 7.69112L7.92162 7.60903L7.97305 7.48397L7.51064 7.29379ZM5.24851 12.2307L5.74179 12.3124L5.75248 12.2479L5.74621 12.1827L5.24851 12.2307ZM5.56305 13.5829L6.03099 13.4067L6.00768 13.3448L5.96909 13.2911L5.56305 13.5829ZM7.20939 15.9103L7.70938 15.9117L7.71004 15.6823L7.53657 15.5322L7.20939 15.9103ZM7.21155 16.7812L7.71153 16.7766L7.21155 16.7812ZM8.1437 18.1575L8.0496 18.6486H8.0496L8.1437 18.1575ZM9.10502 18.1536L9.01398 17.662H9.01398L9.10502 18.1536ZM10.0045 17.3418L10.1246 16.8565L9.69258 16.7496L9.53632 17.1663L10.0045 17.3418ZM13.4651 17.3503L13.9355 17.1808L13.7834 16.7587L13.3474 16.8643L13.4651 17.3503ZM14.4089 18.1754L14.4685 17.6789L14.4089 18.1754ZM15.1565 18.1716L15.2172 18.6679L15.2172 18.6679L15.1565 18.1716ZM17.7797 11.7245C17.7797 13.2045 17.0958 14.5542 15.9705 15.5294L16.6255 16.2851C17.9446 15.1419 18.7797 13.5264 18.7797 11.7245H17.7797ZM11.752 6.396C15.1358 6.396 17.7797 8.83342 17.7797 11.7245H18.7797C18.7797 8.17761 15.5785 5.396 11.752 5.396V6.396ZM9.65331 6.72806C10.3058 6.51362 11.0126 6.396 11.752 6.396V5.396C10.9063 5.396 10.0941 5.53057 9.34109 5.77804L9.65331 6.72806ZM7.97305 7.48397C8.1986 6.93559 8.80669 6.61294 9.38964 6.74135L9.60475 5.76475C8.54289 5.53087 7.45674 6.11033 7.04822 7.1036L7.97305 7.48397ZM5.72424 11.7245C5.72424 10.1258 6.52282 8.67756 7.81416 7.69112L7.20712 6.89645C5.69959 8.04803 4.72424 9.77655 4.72424 11.7245H5.72424ZM5.74621 12.1827C5.73167 12.0318 5.72424 11.879 5.72424 11.7245H4.72424C4.72424 11.9111 4.73321 12.0959 4.75082 12.2786L5.74621 12.1827ZM5.72412 12.5285C5.72412 12.4545 5.7302 12.3824 5.74179 12.3124L4.75523 12.149C4.73473 12.2728 4.72412 12.3996 4.72412 12.5285H5.72412ZM5.96909 13.2911C5.81484 13.0764 5.72412 12.8138 5.72412 12.5285H4.72412C4.72412 13.03 4.88463 13.4956 5.15701 13.8746L5.96909 13.2911ZM7.53657 15.5322C6.85509 14.9424 6.33529 14.215 6.03099 13.4067L5.09511 13.759C5.46225 14.7342 6.08381 15.5974 6.8822 16.2884L7.53657 15.5322ZM7.71153 16.7766C7.70902 16.4995 7.70855 16.2049 7.70938 15.9117L6.70939 15.9088C6.70854 16.2048 6.70901 16.5035 6.71157 16.7857L7.71153 16.7766ZM8.2378 17.6665C7.96574 17.6143 7.71622 17.2956 7.71153 16.7766L6.71157 16.7857C6.7182 17.5181 7.09257 18.4652 8.0496 18.6486L8.2378 17.6665ZM9.01398 17.662C8.77471 17.7063 8.50985 17.7186 8.2378 17.6665L8.0496 18.6486C8.46826 18.7288 8.86137 18.7072 9.19606 18.6453L9.01398 17.662ZM9.53632 17.1663C9.42867 17.4534 9.24394 17.6194 9.01398 17.662L9.19606 18.6453C9.85502 18.5232 10.2752 18.044 10.4727 17.5174L9.53632 17.1663ZM11.752 17.053C11.1873 17.053 10.6416 16.9844 10.1246 16.8565L9.88437 17.8272C10.4798 17.9745 11.1061 18.053 11.752 18.053V17.053ZM13.3474 16.8643C12.8399 16.9872 12.305 17.053 11.752 17.053V18.053C12.3845 18.053 12.9984 17.9777 13.5828 17.8362L13.3474 16.8643ZM14.4685 17.6789C14.2412 17.6517 14.0462 17.4882 13.9355 17.1808L12.9947 17.5197C13.1933 18.0711 13.6416 18.5869 14.3494 18.6718L14.4685 17.6789ZM15.0958 17.6753C14.8984 17.6994 14.6861 17.705 14.4685 17.6789L14.3494 18.6718C14.6595 18.709 14.9536 18.7001 15.2172 18.6679L15.0958 17.6753ZM15.798 16.6384C15.798 17.2347 15.4784 17.6285 15.0958 17.6753L15.2172 18.6679C16.2966 18.5358 16.798 17.515 16.798 16.6384H15.798ZM15.798 15.9073V16.6384H16.798V15.9073H15.798Z" fill="#242936" mask="url(#path-4-inside-1_13862_62616)"/>
<circle cx="7.49738" cy="11.0716" r="0.582833" fill="#242936"/>
<path d="M10.0793 17.0361C10.0793 17.0361 9.67406 16.8352 9.2688 16.6344" stroke="#242936" stroke-width="0.5" stroke-linecap="round"/>
<path d="M15.3932 15.9983C15.3932 15.9983 16.0388 15.7136 16.2536 15.559C16.408 15.4479 16.5251 15.3326 16.605 15.213" stroke="#242936" stroke-width="0.5" stroke-linecap="round"/>
<path d="M8.23755 6.40894C8.23755 6.40894 9.20413 6.81781 9.24043 8.28171" stroke="#242936" stroke-width="0.5" stroke-linecap="round"/>
<path d="M5.75 12.5C5.75 12.8717 5.6491 13.197 5.49909 13.422C5.34793 13.6487 5.16655 13.75 5 13.75C4.83345 13.75 4.65207 13.6487 4.50091 13.422C4.3509 13.197 4.25 12.8717 4.25 12.5C4.25 12.1283 4.3509 11.803 4.50091 11.578C4.65207 11.3513 4.83345 11.25 5 11.25C5.16655 11.25 5.34793 11.3513 5.49909 11.578C5.6491 11.803 5.75 12.1283 5.75 12.5Z" fill="#19A5F0" stroke="#242936" stroke-width="0.5"/>
<path fill-rule="evenodd" clip-rule="evenodd" d="M12 7V7.57143C12 7.57143 14.5714 7.42857 16 9C16 8.42857 16 8.42857 15.7143 8.14286C14.4286 7 12 7 12 7Z" fill="white"/>
<path d="M18 11.5004C18 11.5004 18 13.15 19.3793 12.985C20.7586 12.82 20.7586 11.6653 20.3448 11.1705C19.931 10.6756 19.1034 11.3354 19.5172 12.1602C19.931 12.985 21.5862 13.15 22 12.4901" stroke="#242936" stroke-width="0.5" stroke-linecap="round"/>
<path fill-rule="evenodd" clip-rule="evenodd" d="M12.1599 9.90588C11.838 9.90588 11.5771 10.1668 11.5771 10.4887V11.363H10.7027C10.3808 11.363 10.1199 11.6239 10.1199 11.9458C10.1199 12.2677 10.3808 12.5287 10.7027 12.5287H11.5771V13.4029C11.5771 13.7248 11.838 13.9857 12.1599 13.9857C12.4818 13.9857 12.7427 13.7248 12.7427 13.4029V12.5287H13.6169C13.9388 12.5287 14.1997 12.2677 14.1997 11.9458C14.1997 11.6239 13.9388 11.363 13.6169 11.363H12.7427V10.4887C12.7427 10.1668 12.4818 9.90588 12.1599 9.90588Z" fill="white"/>
</svg>
