<svg width="25" height="24" viewBox="0 0 25 24" fill="none" xmlns="http://www.w3.org/2000/svg">
<ellipse cx="12.9626" cy="12" rx="11.9775" ry="12" fill="#D7EAF6"/>
<path d="M13.0768 20.0283L7.15961 13.7118C6.36592 12.7957 6.02612 11.7696 6.02612 10.6189C6.02612 9.47483 6.48112 8.32597 7.16112 7.52422C8.61997 5.9448 11.3218 5.94602 12.7788 7.52786L12.9691 7.7345L13.1522 7.52146C14.606 5.83031 17.1862 5.81977 18.7679 7.52833L18.7678 7.52843L18.7739 7.53455C19.5528 8.3198 19.8992 9.456 19.8992 10.6189C19.8992 11.7635 19.444 12.9068 18.6541 13.7032L18.649 13.7084L18.6441 13.7139L13.0768 20.0283Z" fill="#19A5F0" stroke="black" stroke-width="0.5"/>
<ellipse cx="16.5557" cy="9.5999" rx="1.19775" ry="1.2" fill="white"/>
<path d="M8.17139 10.7999C8.17139 9.73952 8.67045 8.7199 9.36914 8.3999" stroke="white" stroke-linecap="round"/>
</svg>
