<svg width="25" height="24" viewBox="0 0 25 24" fill="none" xmlns="http://www.w3.org/2000/svg">
<ellipse cx="12.9626" cy="12" rx="11.9775" ry="12" fill="#D7EAF6"/>
<path fill-rule="evenodd" clip-rule="evenodd" d="M9.97733 8.50423V7.36588C9.97733 7.24015 10.0791 7.13821 10.2046 7.13821H15.2039C15.3294 7.13821 15.4311 7.24015 15.4311 7.36588V8.50423M9.06836 8.61806V7.36588C9.06836 6.73719 9.57706 6.22754 10.2046 6.22754H15.2039C15.8314 6.22754 16.3401 6.73719 16.3401 7.36588V8.7319" fill="#0077BC"/>
<path fill-rule="evenodd" clip-rule="evenodd" d="M10.2043 6.45534C9.70227 6.45534 9.29531 6.86306 9.29531 7.36601V8.61819H8.84082V7.36601C8.84082 6.61158 9.45126 6 10.2043 6H15.2036C15.9566 6 16.5671 6.61158 16.5671 7.36601V8.73203H16.1126V7.36601C16.1126 6.86306 15.7056 6.45534 15.2036 6.45534H10.2043ZM9.74979 7.36601C9.74979 7.11454 9.95327 6.91068 10.2043 6.91068H15.2036C15.4546 6.91068 15.6581 7.11454 15.6581 7.36601V8.50436H15.2036V7.36601H10.2043V8.50436H9.74979V7.36601Z" fill="#242936"/>
<path fill-rule="evenodd" clip-rule="evenodd" d="M7.7045 8.50439H5.65932C5.40831 8.50439 5.20483 8.70826 5.20483 8.95973V17.6111C5.20483 17.8626 5.40831 18.0665 5.65932 18.0665H19.7484C19.9994 18.0665 20.2028 17.8626 20.2028 17.6111V8.95973C20.2028 8.70826 19.9994 8.50439 19.7484 8.50439H17.7032" fill="#19A5F0"/>
<path fill-rule="evenodd" clip-rule="evenodd" d="M4.97803 8.95962C4.97803 8.5824 5.28325 8.27661 5.65975 8.27661H7.70494V8.73195H5.65975C5.53425 8.73195 5.43251 8.83388 5.43251 8.95962V17.611C5.43251 17.7368 5.53425 17.8387 5.65975 17.8387H19.7488C19.8743 17.8387 19.976 17.7368 19.976 17.611V8.95962C19.976 8.83388 19.8743 8.73195 19.7488 8.73195H17.7036V8.27661H19.7488C20.1253 8.27661 20.4305 8.5824 20.4305 8.95962V17.611C20.4305 17.9882 20.1253 18.294 19.7488 18.294H5.65975C5.28325 18.294 4.97803 17.9882 4.97803 17.611V8.95962Z" fill="#242936"/>
<path d="M15.8855 13.2855C15.8855 15.0458 14.4611 16.4729 12.7041 16.4729C10.9471 16.4729 9.52271 15.0458 9.52271 13.2855C9.52271 11.5252 10.9471 10.0981 12.7041 10.0981C14.4611 10.0981 15.8855 11.5252 15.8855 13.2855Z" fill="white"/>
<path fill-rule="evenodd" clip-rule="evenodd" d="M7.65942 8.27686H18.658V8.73219H7.65942V8.27686Z" fill="#303035"/>
<path fill-rule="evenodd" clip-rule="evenodd" d="M12.2496 11.2363C12.1241 11.2363 12.0224 11.3383 12.0224 11.464V12.6023H10.8862C10.7607 12.6023 10.6589 12.7043 10.6589 12.83V13.7407C10.6589 13.8664 10.7607 13.9684 10.8862 13.9684H12.0224V15.1067C12.0224 15.2324 12.1241 15.3344 12.2496 15.3344H13.1586C13.2841 15.3344 13.3858 15.2324 13.3858 15.1067V13.9684H14.5221C14.6476 13.9684 14.7493 13.8664 14.7493 13.7407V12.83C14.7493 12.7043 14.6476 12.6023 14.5221 12.6023H13.3858V11.464C13.3858 11.3383 13.2841 11.2363 13.1586 11.2363H12.2496Z" fill="#0077BC"/>
<path d="M6.79565 8.50439H7.93187V17.8388H6.79565V8.50439Z" fill="white"/>
<path d="M17.4761 8.50439H18.6123V17.8388H17.4761V8.50439Z" fill="white"/>
<path d="M6.34106 8.04909C6.34106 7.79761 6.54454 7.59375 6.79555 7.59375H7.93176C8.18277 7.59375 8.38625 7.79761 8.38625 8.04909V8.27676C8.38625 8.52823 8.18277 8.73209 7.93176 8.73209H6.79555C6.54454 8.73209 6.34106 8.52823 6.34106 8.27676V8.04909Z" fill="#D8D8D8"/>
<path fill-rule="evenodd" clip-rule="evenodd" d="M7.93176 8.04909H6.79555L6.79555 8.27676H7.93176V8.04909ZM6.79555 7.59375C6.54454 7.59375 6.34106 7.79761 6.34106 8.04909V8.27676C6.34106 8.52823 6.54454 8.73209 6.79555 8.73209H7.93176C8.18277 8.73209 8.38625 8.52823 8.38625 8.27676V8.04909C8.38625 7.79761 8.18277 7.59375 7.93176 7.59375H6.79555Z" fill="#242936"/>
<path d="M17.0215 8.04909C17.0215 7.79761 17.225 7.59375 17.476 7.59375H18.6122C18.8632 7.59375 19.0667 7.79761 19.0667 8.04909V8.27676C19.0667 8.52823 18.8632 8.73209 18.6122 8.73209H17.476C17.225 8.73209 17.0215 8.52823 17.0215 8.27676V8.04909Z" fill="#D8D8D8"/>
<path fill-rule="evenodd" clip-rule="evenodd" d="M18.6122 8.04909H17.476L17.476 8.27676H18.6122V8.04909ZM17.476 7.59375C17.225 7.59375 17.0215 7.79761 17.0215 8.04909V8.27676C17.0215 8.52823 17.225 8.73209 17.476 8.73209H18.6122C18.8632 8.73209 19.0667 8.52823 19.0667 8.27676V8.04909C19.0667 7.79761 18.8632 7.59375 18.6122 7.59375H17.476Z" fill="#242936"/>
</svg>
