<svg width="25" height="24" viewBox="0 0 25 24" fill="none" xmlns="http://www.w3.org/2000/svg">
<ellipse cx="12.9626" cy="12" rx="11.9775" ry="12" fill="#D7EAF6"/>
<path fill-rule="evenodd" clip-rule="evenodd" d="M21.532 13.0778C21.8863 13.0778 22.1193 12.7242 21.9575 12.409C21.0519 10.6448 18.1555 6 12.7627 6C7.3699 6 4.47349 10.6448 3.56788 12.409C3.40608 12.7242 3.63902 13.0778 3.99332 13.0778H21.532Z" fill="#0077BC" stroke="#242936" stroke-width="0.5"/>
<mask id="path-3-inside-1_13862_62572" fill="white">
<path fill-rule="evenodd" clip-rule="evenodd" d="M2.98071 12.8055C4.87748 9.56038 8.54694 7.36108 12.7626 7.36108C16.9782 7.36108 20.6477 9.56039 22.5445 12.8055C20.6477 16.0507 16.9782 18.25 12.7626 18.25C8.54694 18.25 4.87748 16.0507 2.98071 12.8055Z"/>
</mask>
<path fill-rule="evenodd" clip-rule="evenodd" d="M2.98071 12.8055C4.87748 9.56038 8.54694 7.36108 12.7626 7.36108C16.9782 7.36108 20.6477 9.56039 22.5445 12.8055C20.6477 16.0507 16.9782 18.25 12.7626 18.25C8.54694 18.25 4.87748 16.0507 2.98071 12.8055Z" fill="white"/>
<path d="M2.98071 12.8055L2.54904 12.5532L2.40157 12.8055L2.54904 13.0578L2.98071 12.8055ZM22.5445 12.8055L22.9761 13.0578L23.1236 12.8055L22.9761 12.5532L22.5445 12.8055ZM3.41238 13.0578C5.21788 9.96885 8.72139 7.86108 12.7626 7.86108V6.86108C8.37248 6.86108 4.53709 9.15191 2.54904 12.5532L3.41238 13.0578ZM12.7626 7.86108C16.8038 7.86108 20.3073 9.96886 22.1128 13.0578L22.9761 12.5532C20.9881 9.15192 17.1527 6.86108 12.7626 6.86108V7.86108ZM22.1128 12.5532C20.3073 15.6422 16.8038 17.75 12.7626 17.75V18.75C17.1527 18.75 20.9881 16.4591 22.9761 13.0578L22.1128 12.5532ZM12.7626 17.75C8.72139 17.75 5.21788 15.6422 3.41238 12.5532L2.54904 13.0578C4.53709 16.4591 8.37248 18.75 12.7626 18.75V17.75Z" fill="#242936" mask="url(#path-3-inside-1_13862_62572)"/>
<ellipse cx="12.7617" cy="12.8058" rx="4.89085" ry="4.90003" fill="#19A5F0"/>
<ellipse cx="12.7619" cy="12.8055" rx="1.902" ry="1.90557" fill="#242936"/>
<ellipse cx="13.3054" cy="12.261" rx="0.271714" ry="0.272224" fill="white"/>
</svg>
