<svg width="24" height="24" viewBox="0 0 24 24" fill="none" xmlns="http://www.w3.org/2000/svg">
<ellipse cx="11.9775" cy="12" rx="11.9775" ry="12" fill="#D7EAF6"/>
<path fill-rule="evenodd" clip-rule="evenodd" d="M12.2882 19.3999C12.2882 19.3999 6 16.7887 6 12.169C6 10.3658 6 9.26642 6 8.59617C6 8.10058 6.52985 7.32926 7.00439 7.13221L12.0024 5.05678C12.1847 4.98107 12.3916 4.98107 12.5739 5.05678L18.1434 7.36951C18.4062 7.47865 18.5763 7.72692 18.5763 8.00139V12.169C18.5763 17.1905 12.2882 19.3999 12.2882 19.3999Z" fill="white"/>
<path fill-rule="evenodd" clip-rule="evenodd" d="M12.4965 5.37754C12.3636 5.32214 12.2127 5.32214 12.0798 5.37754L7.22061 7.40269C7.03477 7.48014 6.81391 7.68549 6.63584 7.94587C6.45775 8.20629 6.34934 8.48245 6.34934 8.67705V12.1633C6.34934 14.3408 7.82714 16.0618 9.3419 17.2515C10.0962 17.844 10.8514 18.298 11.4184 18.604C11.7017 18.7569 11.9375 18.8726 12.1021 18.9498C12.1844 18.9884 12.2488 19.0174 12.2924 19.0367C12.2927 19.0368 12.2931 19.037 12.2934 19.0371C12.3368 19.0207 12.4007 18.9958 12.4824 18.9623C12.6465 18.895 12.8818 18.7932 13.1646 18.6557C13.7306 18.3805 14.4844 17.9636 15.2372 17.3964C16.7459 16.2597 18.227 14.5391 18.227 12.1633V8.09668C18.227 7.89581 18.103 7.71412 17.9113 7.63425L12.4965 5.37754ZM12.2882 19.2191C12.2187 19.3732 12.2186 19.3732 12.2185 19.3731L12.2172 19.3726L12.2135 19.371L12.1995 19.3651C12.1874 19.3599 12.1696 19.3522 12.1467 19.342C12.1007 19.3217 12.0338 19.2916 11.9489 19.2518C11.7791 19.1721 11.5373 19.0534 11.2475 18.897C10.6682 18.5844 9.89503 18.1198 9.12093 17.5118C7.57895 16.3006 6 14.4937 6 12.1633V8.67705C6 8.38806 6.14916 8.04611 6.34397 7.76124C6.53881 7.47634 6.80619 7.20923 7.08171 7.0944L11.9409 5.06925C12.1625 4.97692 12.4139 4.97692 12.6354 5.06925L18.0502 7.32596C18.3696 7.45908 18.5763 7.76189 18.5763 8.09668V12.1633C18.5763 14.6874 17.0006 16.4946 15.4526 17.6609C14.6771 18.2452 13.9025 18.6734 13.3222 18.9556C13.0318 19.0968 12.7895 19.2016 12.6193 19.2714C12.5342 19.3063 12.4671 19.3324 12.4209 19.3499C12.3978 19.3587 12.38 19.3653 12.3678 19.3698L12.3537 19.3749L12.3499 19.3762L12.3488 19.3766C12.3487 19.3766 12.3483 19.3768 12.2882 19.2191ZM12.2882 19.2191L12.3488 19.3766L12.2828 19.3999L12.2185 19.3731L12.2882 19.2191Z" fill="black"/>
<path fill-rule="evenodd" clip-rule="evenodd" d="M12.2882 19.3999C12.2882 19.3999 6 16.7887 6 12.169C6 10.3658 6 9.26642 6 8.59617C6 8.10058 6.52985 7.32926 7.00439 7.13221L12.0024 5.05678C12.1847 4.98107 12.3916 4.98107 12.5739 5.05678L18.1434 7.36951C18.4062 7.47865 18.5763 7.72692 18.5763 8.00139V12.169C18.5763 17.1905 12.2882 19.3999 12.2882 19.3999Z" fill="#19A5F0"/>
<path fill-rule="evenodd" clip-rule="evenodd" d="M12.4965 5.37754C12.3636 5.32214 12.2127 5.32214 12.0798 5.37754L7.22061 7.40269C7.03477 7.48014 6.81391 7.68549 6.63584 7.94587C6.45775 8.20629 6.34934 8.48245 6.34934 8.67705V12.1633C6.34934 14.3408 7.82714 16.0618 9.3419 17.2515C10.0962 17.844 10.8514 18.298 11.4184 18.604C11.7017 18.7569 11.9375 18.8726 12.1021 18.9498C12.1844 18.9884 12.2488 19.0174 12.2924 19.0367C12.2927 19.0368 12.2931 19.037 12.2934 19.0371C12.3368 19.0207 12.4007 18.9958 12.4824 18.9623C12.6465 18.895 12.8818 18.7932 13.1646 18.6557C13.7306 18.3805 14.4844 17.9636 15.2372 17.3964C16.7459 16.2597 18.227 14.5391 18.227 12.1633V8.09668C18.227 7.89581 18.103 7.71412 17.9113 7.63425L12.4965 5.37754ZM12.2882 19.2191C12.2187 19.3732 12.2186 19.3732 12.2185 19.3731L12.2172 19.3726L12.2135 19.371L12.1995 19.3651C12.1874 19.3599 12.1696 19.3522 12.1467 19.342C12.1007 19.3217 12.0338 19.2916 11.9489 19.2518C11.7791 19.1721 11.5373 19.0534 11.2475 18.897C10.6682 18.5844 9.89503 18.1198 9.12093 17.5118C7.57895 16.3006 6 14.4937 6 12.1633V8.67705C6 8.38806 6.14916 8.04611 6.34397 7.76124C6.53881 7.47634 6.80619 7.20923 7.08171 7.0944L11.9409 5.06925C12.1625 4.97692 12.4139 4.97692 12.6354 5.06925L18.0502 7.32596C18.3696 7.45908 18.5763 7.76189 18.5763 8.09668V12.1633C18.5763 14.6874 17.0006 16.4946 15.4526 17.6609C14.6771 18.2452 13.9025 18.6734 13.3222 18.9556C13.0318 19.0968 12.7895 19.2016 12.6193 19.2714C12.5342 19.3063 12.4671 19.3324 12.4209 19.3499C12.3978 19.3587 12.38 19.3653 12.3678 19.3698L12.3537 19.3749L12.3499 19.3762L12.3488 19.3766C12.3487 19.3766 12.3483 19.3768 12.2882 19.2191ZM12.2882 19.2191L12.3488 19.3766L12.2828 19.3999L12.2185 19.3731L12.2882 19.2191Z" fill="black"/>
<path d="M12.2185 19.3731C12.2186 19.3732 12.2187 19.3732 12.2882 19.2191M12.2185 19.3731L12.2172 19.3726L12.2135 19.371L12.1995 19.3651C12.1874 19.3599 12.1696 19.3522 12.1467 19.342C12.1007 19.3217 12.0338 19.2916 11.9489 19.2518C11.7791 19.1721 11.5373 19.0534 11.2475 18.897C10.6682 18.5844 9.89503 18.1198 9.12093 17.5118C7.57895 16.3006 6 14.4937 6 12.1633V8.67705C6 8.38806 6.14916 8.04611 6.34397 7.76124C6.53881 7.47634 6.80619 7.20923 7.08171 7.09441L11.9409 5.06925C12.1625 4.97692 12.4139 4.97692 12.6354 5.06925L18.0502 7.32596C18.3696 7.45908 18.5763 7.76189 18.5763 8.09668V12.1633C18.5763 14.6874 17.0006 16.4946 15.4526 17.6609C14.6771 18.2452 13.9025 18.6734 13.3222 18.9556C13.0318 19.0968 12.7895 19.2016 12.6193 19.2714C12.5342 19.3063 12.4671 19.3324 12.4209 19.3499C12.3978 19.3587 12.38 19.3653 12.3678 19.3698L12.3537 19.3749L12.3499 19.3762L12.3488 19.3766M12.2185 19.3731L12.2828 19.3999L12.3488 19.3766M12.2185 19.3731L12.2882 19.2191M12.2882 19.2191C12.3483 19.3768 12.3487 19.3766 12.3488 19.3766M12.2882 19.2191L12.3488 19.3766M12.0798 5.37754C12.2127 5.32214 12.3636 5.32214 12.4965 5.37754L17.9113 7.63425C18.103 7.71412 18.227 7.89581 18.227 8.09668V12.1633C18.227 14.5391 16.7459 16.2597 15.2372 17.3964C14.4844 17.9636 13.7306 18.3805 13.1646 18.6557C12.8818 18.7932 12.6465 18.895 12.4824 18.9623C12.4007 18.9958 12.3368 19.0207 12.2934 19.0371C12.2931 19.037 12.2927 19.0368 12.2924 19.0367C12.2488 19.0174 12.1844 18.9884 12.1021 18.9498C11.9375 18.8726 11.7017 18.7569 11.4184 18.604C10.8514 18.298 10.0962 17.844 9.3419 17.2515C7.82714 16.0618 6.34934 14.3408 6.34934 12.1633V8.67705C6.34934 8.48245 6.45775 8.20629 6.63584 7.94587C6.81391 7.68549 7.03477 7.48014 7.22061 7.40269L12.0798 5.37754Z" stroke="#242936" stroke-width="0.2"/>
<path fill-rule="evenodd" clip-rule="evenodd" d="M12.2887 17.6002C12.2887 17.6002 7.79712 15.6395 7.79712 12.1705C7.79712 10.4537 7.79712 9.58657 7.79712 9.14856C7.79712 8.87693 7.95589 8.63217 8.20072 8.5253L12.0268 6.85504C12.1941 6.78204 12.3833 6.78204 12.5505 6.85504L16.3766 8.5253C16.6214 8.63217 16.7802 8.87764 16.7802 9.14927V12.1705C16.7802 15.9411 12.2887 17.6002 12.2887 17.6002Z" fill="white"/>
<path fill-rule="evenodd" clip-rule="evenodd" d="M11.7494 8.59985C11.551 8.59985 11.3901 8.76103 11.3901 8.95985V10.3998H9.95283C9.75438 10.3998 9.59351 10.561 9.59351 10.7598V11.8398C9.59351 12.0387 9.75438 12.1998 9.95283 12.1998H11.3901V13.6398C11.3901 13.8386 11.551 13.9998 11.7494 13.9998H12.8274C13.0259 13.9998 13.1867 13.8386 13.1867 13.6398V12.1998H14.624C14.8225 12.1998 14.9834 12.0387 14.9834 11.8398V10.7598C14.9834 10.561 14.8225 10.3998 14.624 10.3998H13.1867V8.95985C13.1867 8.76103 13.0259 8.59985 12.8274 8.59985H11.7494Z" fill="#19A5F0"/>
</svg>
